# xmcd
#
# Track frame offsets:
#	150
#	11267
#	25322
#	36687
#	51977
#	68835
#	81455
#	93812
#	106295
#	116457
#	125237
#	137977
#	149142
#	160912
#
# Disc length: 2349 seconds
#
# Revision: 0
# Processed by: cddbd v1.4PL0 Copyright (c) Steve Scherf et al.
# Submitted via: EasyCDDAExtractor 4.6.9.1
#
DISCID=cf092b0e
DTITLE=Jeremy Stephens - Scarlet Banjo
DYEAR=2001
DGENRE=Bluegrass
TTITLE0=Jacknife-in'
TTITLE1=Hard Times
TTITLE2=John Brown's Dream
TTITLE3=Greasy Wagon
TTITLE4=The Scarlet Banjo
TTITLE5=The Storms Are On The Ocean
TTITLE6=Signal Of The Banjo
TTITLE7=Eighth Of January
TTITLE8=Double Banjo Roll
TTITLE9=June Apple
TTITLE10=Mack's Hoedown
TTITLE11=Just Pickin'
TTITLE12=Arkansas Traveler
TTITLE13=Dear Old Dixie
EXTD=
EXTT0=
EXTT1=
EXTT2=
EXTT3=
EXTT4=
EXTT5=
EXTT6=
EXTT7=
EXTT8=
EXTT9=
EXTT10=
EXTT11=
EXTT12=
EXTT13=
PLAYORDER=
